<mxfile host="app.diagrams.net" modified="2024-07-16T09:50:35.869Z" agent="Mozilla/5.0 (Windows NT 10.0; Win64; x64) AppleWebKit/537.36 (KHTML, like Gecko) Chrome/126.0.0.0 Safari/537.36" etag="omuu8zfQaP9MZbmXy3uN" version="24.6.5" type="device">
  <diagram name="Page-1" id="ZEwBokqpe_4TrwQXWGql">
    <mxGraphModel dx="1034" dy="452" grid="0" gridSize="10" guides="1" tooltips="1" connect="1" arrows="1" fold="1" page="1" pageScale="1" pageWidth="850" pageHeight="1100" background="#000000" math="0" shadow="0">
      <root>
        <mxCell id="0" />
        <mxCell id="1" parent="0" />
        <mxCell id="KWPZ-7HagUMgSOcsVBWe-12" style="edgeStyle=orthogonalEdgeStyle;shape=connector;rounded=0;orthogonalLoop=1;jettySize=auto;html=1;exitX=0.5;exitY=1;exitDx=0;exitDy=0;entryX=0.5;entryY=0;entryDx=0;entryDy=0;strokeColor=#FFFFFF;align=center;verticalAlign=middle;fontFamily=Helvetica;fontSize=12;fontColor=#FFFFFF;labelBackgroundColor=default;endArrow=classic;" edge="1" parent="1" source="KWPZ-7HagUMgSOcsVBWe-1" target="KWPZ-7HagUMgSOcsVBWe-4">
          <mxGeometry relative="1" as="geometry">
            <Array as="points">
              <mxPoint x="394" y="152" />
              <mxPoint x="600" y="152" />
            </Array>
          </mxGeometry>
        </mxCell>
        <mxCell id="KWPZ-7HagUMgSOcsVBWe-13" style="edgeStyle=orthogonalEdgeStyle;shape=connector;rounded=0;orthogonalLoop=1;jettySize=auto;html=1;exitX=0.5;exitY=1;exitDx=0;exitDy=0;entryX=0.5;entryY=0;entryDx=0;entryDy=0;strokeColor=#FFFFFF;align=center;verticalAlign=middle;fontFamily=Helvetica;fontSize=12;fontColor=#FFFFFF;labelBackgroundColor=default;endArrow=classic;" edge="1" parent="1" source="KWPZ-7HagUMgSOcsVBWe-1" target="KWPZ-7HagUMgSOcsVBWe-3">
          <mxGeometry relative="1" as="geometry" />
        </mxCell>
        <mxCell id="KWPZ-7HagUMgSOcsVBWe-15" style="edgeStyle=orthogonalEdgeStyle;shape=connector;rounded=0;orthogonalLoop=1;jettySize=auto;html=1;exitX=0.5;exitY=1;exitDx=0;exitDy=0;entryX=0.5;entryY=0;entryDx=0;entryDy=0;strokeColor=#FFFFFF;align=center;verticalAlign=middle;fontFamily=Helvetica;fontSize=12;fontColor=#FFFFFF;labelBackgroundColor=default;endArrow=classic;" edge="1" parent="1" source="KWPZ-7HagUMgSOcsVBWe-1" target="KWPZ-7HagUMgSOcsVBWe-5">
          <mxGeometry relative="1" as="geometry" />
        </mxCell>
        <mxCell id="KWPZ-7HagUMgSOcsVBWe-1" value="Log in" style="rounded=0;whiteSpace=wrap;html=1;strokeColor=#FFFFFF;fillColor=none;fontColor=#FFFFFF;" vertex="1" parent="1">
          <mxGeometry x="350" y="90" width="88" height="37" as="geometry" />
        </mxCell>
        <mxCell id="KWPZ-7HagUMgSOcsVBWe-2" value="Trainer&#39;s Services" style="rounded=0;whiteSpace=wrap;html=1;strokeColor=#FFFFFF;align=center;verticalAlign=middle;fontFamily=Helvetica;fontSize=12;fontColor=#FFFFFF;fillColor=none;" vertex="1" parent="1">
          <mxGeometry x="125" y="177" width="107" height="51" as="geometry" />
        </mxCell>
        <mxCell id="KWPZ-7HagUMgSOcsVBWe-3" value="Nutritionist Services" style="rounded=0;whiteSpace=wrap;html=1;strokeColor=#FFFFFF;align=center;verticalAlign=middle;fontFamily=Helvetica;fontSize=12;fontColor=#FFFFFF;fillColor=none;" vertex="1" parent="1">
          <mxGeometry x="252" y="177" width="120" height="53" as="geometry" />
        </mxCell>
        <mxCell id="KWPZ-7HagUMgSOcsVBWe-4" value="Apparels" style="rounded=0;whiteSpace=wrap;html=1;strokeColor=#FFFFFF;align=center;verticalAlign=middle;fontFamily=Helvetica;fontSize=12;fontColor=#FFFFFF;fillColor=none;" vertex="1" parent="1">
          <mxGeometry x="549" y="179.5" width="103" height="50.5" as="geometry" />
        </mxCell>
        <mxCell id="KWPZ-7HagUMgSOcsVBWe-5" value="Massage" style="rounded=0;whiteSpace=wrap;html=1;strokeColor=#FFFFFF;align=center;verticalAlign=middle;fontFamily=Helvetica;fontSize=12;fontColor=#FFFFFF;fillColor=none;" vertex="1" parent="1">
          <mxGeometry x="393" y="179" width="110" height="49" as="geometry" />
        </mxCell>
        <mxCell id="KWPZ-7HagUMgSOcsVBWe-14" style="edgeStyle=orthogonalEdgeStyle;shape=connector;rounded=0;orthogonalLoop=1;jettySize=auto;html=1;exitX=0.5;exitY=1;exitDx=0;exitDy=0;entryX=0.442;entryY=-0.059;entryDx=0;entryDy=0;entryPerimeter=0;strokeColor=#FFFFFF;align=center;verticalAlign=middle;fontFamily=Helvetica;fontSize=12;fontColor=#FFFFFF;labelBackgroundColor=default;endArrow=classic;" edge="1" parent="1" source="KWPZ-7HagUMgSOcsVBWe-1" target="KWPZ-7HagUMgSOcsVBWe-2">
          <mxGeometry relative="1" as="geometry" />
        </mxCell>
        <mxCell id="KWPZ-7HagUMgSOcsVBWe-16" value="Payment" style="rounded=0;whiteSpace=wrap;html=1;strokeColor=#FFFFFF;align=center;verticalAlign=middle;fontFamily=Helvetica;fontSize=12;fontColor=#FFFFFF;labelBackgroundColor=#000000;fillColor=none;" vertex="1" parent="1">
          <mxGeometry x="161" y="301" width="469" height="60" as="geometry" />
        </mxCell>
        <mxCell id="KWPZ-7HagUMgSOcsVBWe-18" style="edgeStyle=orthogonalEdgeStyle;shape=connector;rounded=0;orthogonalLoop=1;jettySize=auto;html=1;exitX=0.5;exitY=1;exitDx=0;exitDy=0;entryX=0.039;entryY=-0.039;entryDx=0;entryDy=0;entryPerimeter=0;strokeColor=#FFFFFF;align=center;verticalAlign=middle;fontFamily=Helvetica;fontSize=12;fontColor=#FFFFFF;labelBackgroundColor=default;endArrow=classic;" edge="1" parent="1" source="KWPZ-7HagUMgSOcsVBWe-2" target="KWPZ-7HagUMgSOcsVBWe-16">
          <mxGeometry relative="1" as="geometry" />
        </mxCell>
        <mxCell id="KWPZ-7HagUMgSOcsVBWe-19" style="edgeStyle=orthogonalEdgeStyle;shape=connector;rounded=0;orthogonalLoop=1;jettySize=auto;html=1;exitX=0.5;exitY=1;exitDx=0;exitDy=0;entryX=0.613;entryY=-0.006;entryDx=0;entryDy=0;entryPerimeter=0;strokeColor=#FFFFFF;align=center;verticalAlign=middle;fontFamily=Helvetica;fontSize=12;fontColor=#FFFFFF;labelBackgroundColor=default;endArrow=classic;" edge="1" parent="1" source="KWPZ-7HagUMgSOcsVBWe-5" target="KWPZ-7HagUMgSOcsVBWe-16">
          <mxGeometry relative="1" as="geometry" />
        </mxCell>
        <mxCell id="KWPZ-7HagUMgSOcsVBWe-20" style="edgeStyle=orthogonalEdgeStyle;shape=connector;rounded=0;orthogonalLoop=1;jettySize=auto;html=1;exitX=0.5;exitY=1;exitDx=0;exitDy=0;entryX=0.906;entryY=0.006;entryDx=0;entryDy=0;entryPerimeter=0;strokeColor=#FFFFFF;align=center;verticalAlign=middle;fontFamily=Helvetica;fontSize=12;fontColor=#FFFFFF;labelBackgroundColor=default;endArrow=classic;" edge="1" parent="1" source="KWPZ-7HagUMgSOcsVBWe-4" target="KWPZ-7HagUMgSOcsVBWe-16">
          <mxGeometry relative="1" as="geometry" />
        </mxCell>
        <mxCell id="KWPZ-7HagUMgSOcsVBWe-21" style="edgeStyle=orthogonalEdgeStyle;shape=connector;rounded=0;orthogonalLoop=1;jettySize=auto;html=1;exitX=0.5;exitY=1;exitDx=0;exitDy=0;entryX=0.322;entryY=-0.017;entryDx=0;entryDy=0;entryPerimeter=0;strokeColor=#FFFFFF;align=center;verticalAlign=middle;fontFamily=Helvetica;fontSize=12;fontColor=#FFFFFF;labelBackgroundColor=default;endArrow=classic;" edge="1" parent="1" source="KWPZ-7HagUMgSOcsVBWe-3" target="KWPZ-7HagUMgSOcsVBWe-16">
          <mxGeometry relative="1" as="geometry" />
        </mxCell>
        <mxCell id="KWPZ-7HagUMgSOcsVBWe-22" value="Database" style="rounded=0;whiteSpace=wrap;html=1;strokeColor=#FFFFFF;align=center;verticalAlign=middle;fontFamily=Helvetica;fontSize=12;fontColor=#FFFFFF;labelBackgroundColor=#000000;fillColor=none;" vertex="1" parent="1">
          <mxGeometry x="342" y="423" width="120" height="44" as="geometry" />
        </mxCell>
        <mxCell id="KWPZ-7HagUMgSOcsVBWe-23" style="edgeStyle=orthogonalEdgeStyle;shape=connector;rounded=0;orthogonalLoop=1;jettySize=auto;html=1;exitX=0.5;exitY=1;exitDx=0;exitDy=0;entryX=0.444;entryY=0.045;entryDx=0;entryDy=0;entryPerimeter=0;strokeColor=#FFFFFF;align=center;verticalAlign=middle;fontFamily=Helvetica;fontSize=12;fontColor=#FFFFFF;labelBackgroundColor=#000000;endArrow=classic;" edge="1" parent="1" source="KWPZ-7HagUMgSOcsVBWe-16" target="KWPZ-7HagUMgSOcsVBWe-22">
          <mxGeometry relative="1" as="geometry" />
        </mxCell>
      </root>
    </mxGraphModel>
  </diagram>
</mxfile>
